<?xml version="1.0" standalone="no"?><!DOCTYPE svg PUBLIC "-//W3C//DTD SVG 1.1//EN" "http://www.w3.org/Graphics/SVG/1.1/DTD/svg11.dtd"><svg xmlns:xlink="http://www.w3.org/1999/xlink" version="1.1" style="font-family:'lucida grande', 'lucida sans unicode', arial, helvetica, sans-serif;font-size:12px;" xmlns="http://www.w3.org/2000/svg" width="600" height="400"><desc>Created with Highcharts 4.2.0</desc><defs><clipPath id="highcharts-5"><rect x="1" y="1" width="545" height="313"></rect></clipPath></defs><rect x="43" y="10" width="547" height="315" fill="#ffffff"></rect><path fill="rgb(255, 255, 255)" fill-opacity=" .5" d="M 43 325.5 L 590 325.5 590 299.5 43 299.5"></path><path fill="rgb(255, 255, 255)" fill-opacity=" .5" d="M 43 273.5 L 590 273.5 590 246.5 43 246.5"></path><path fill="rgb(255, 255, 255)" fill-opacity=" .5" d="M 43 220.5 L 590 220.5 590 194.5 43 194.5"></path><path fill="rgb(255, 255, 255)" fill-opacity=" .5" d="M 43 168.5 L 590 168.5 590 141.5 43 141.5"></path><path fill="rgb(255, 255, 255)" fill-opacity=" .5" d="M 43 115.5 L 590 115.5 590 89.5 43 89.5"></path><path fill="rgb(255, 255, 255)" fill-opacity=" .5" d="M 43 63.5 L 590 63.5 590 36.5 43 36.5"></path><g class="highcharts-grid" ></g><g class="highcharts-grid" ><path fill="none" d="M 43 325.5 L 590 325.5" stroke="#C0C0C0" stroke-width="1"  opacity="1"></path><path fill="none" d="M 43 299.5 L 590 299.5" stroke="#C0C0C0" stroke-width="1"  opacity="1"></path><path fill="none" d="M 43 273.5 L 590 273.5" stroke="#C0C0C0" stroke-width="1"  opacity="1"></path><path fill="none" d="M 43 246.5 L 590 246.5" stroke="#C0C0C0" stroke-width="1"  opacity="1"></path><path fill="none" d="M 43 220.5 L 590 220.5" stroke="#C0C0C0" stroke-width="1"  opacity="1"></path><path fill="none" d="M 43 194.5 L 590 194.5" stroke="#C0C0C0" stroke-width="1"  opacity="1"></path><path fill="none" d="M 43 168.5 L 590 168.5" stroke="#C0C0C0" stroke-width="1"  opacity="1"></path><path fill="none" d="M 43 141.5 L 590 141.5" stroke="#C0C0C0" stroke-width="1"  opacity="1"></path><path fill="none" d="M 43 115.5 L 590 115.5" stroke="#C0C0C0" stroke-width="1"  opacity="1"></path><path fill="none" d="M 43 89.5 L 590 89.5" stroke="#C0C0C0" stroke-width="1"  opacity="1"></path><path fill="none" d="M 43 63.5 L 590 63.5" stroke="#C0C0C0" stroke-width="1"  opacity="1"></path><path fill="none" d="M 43 36.5 L 590 36.5" stroke="#C0C0C0" stroke-width="1"  opacity="1"></path><path fill="none" d="M 43 9.5 L 590 9.5" stroke="#C0C0C0" stroke-width="1"  opacity="1"></path></g><rect x="43" y="10" width="547" height="315" strokeWidth="-2" stroke="#026FC1" stroke-width="2" fill="none" ></rect><g class="highcharts-axis" ><path fill="none" d="M 88.5 325 L 88.5 335" stroke="#C0D0E0" stroke-width="1" opacity="1"></path><path fill="none" d="M 133.5 325 L 133.5 335" stroke="#C0D0E0" stroke-width="1" opacity="1"></path><path fill="none" d="M 179.5 325 L 179.5 335" stroke="#C0D0E0" stroke-width="1" opacity="1"></path><path fill="none" d="M 224.5 325 L 224.5 335" stroke="#C0D0E0" stroke-width="1" opacity="1"></path><path fill="none" d="M 270.5 325 L 270.5 335" stroke="#C0D0E0" stroke-width="1" opacity="1"></path><path fill="none" d="M 316.5 325 L 316.5 335" stroke="#C0D0E0" stroke-width="1" opacity="1"></path><path fill="none" d="M 361.5 325 L 361.5 335" stroke="#C0D0E0" stroke-width="1" opacity="1"></path><path fill="none" d="M 407.5 325 L 407.5 335" stroke="#C0D0E0" stroke-width="1" opacity="1"></path><path fill="none" d="M 452.5 325 L 452.5 335" stroke="#C0D0E0" stroke-width="1" opacity="1"></path><path fill="none" d="M 498.5 325 L 498.5 335" stroke="#C0D0E0" stroke-width="1" opacity="1"></path><path fill="none" d="M 543.5 325 L 543.5 335" stroke="#C0D0E0" stroke-width="1" opacity="1"></path><path fill="none" d="M 590.5 325 L 590.5 335" stroke="#C0D0E0" stroke-width="1" opacity="1"></path><path fill="none" d="M 42.5 325 L 42.5 335" stroke="#C0D0E0" stroke-width="1" opacity="1"></path><path fill="none" d="M 43 325.5 L 590 325.5" stroke="#C0D0E0" stroke-width="1" ></path></g><g class="highcharts-axis" ><path fill="none" d="M 43 325.5 L 33 325.5" stroke="#C0D0E0" stroke-width="1" opacity="1"></path><path fill="none" d="M 43 299.5 L 33 299.5" stroke="#C0D0E0" stroke-width="1" opacity="1"></path><path fill="none" d="M 43 273.5 L 33 273.5" stroke="#C0D0E0" stroke-width="1" opacity="1"></path><path fill="none" d="M 43 246.5 L 33 246.5" stroke="#C0D0E0" stroke-width="1" opacity="1"></path><path fill="none" d="M 43 220.5 L 33 220.5" stroke="#C0D0E0" stroke-width="1" opacity="1"></path><path fill="none" d="M 43 194.5 L 33 194.5" stroke="#C0D0E0" stroke-width="1" opacity="1"></path><path fill="none" d="M 43 168.5 L 33 168.5" stroke="#C0D0E0" stroke-width="1" opacity="1"></path><path fill="none" d="M 43 141.5 L 33 141.5" stroke="#C0D0E0" stroke-width="1" opacity="1"></path><path fill="none" d="M 43 115.5 L 33 115.5" stroke="#C0D0E0" stroke-width="1" opacity="1"></path><path fill="none" d="M 43 89.5 L 33 89.5" stroke="#C0D0E0" stroke-width="1" opacity="1"></path><path fill="none" d="M 43 63.5 L 33 63.5" stroke="#C0D0E0" stroke-width="1" opacity="1"></path><path fill="none" d="M 43 36.5 L 33 36.5" stroke="#C0D0E0" stroke-width="1" opacity="1"></path><path fill="none" d="M 43 9.5 L 33 9.5" stroke="#C0D0E0" stroke-width="1" opacity="1"></path></g><g class="highcharts-series-group" ><g class="highcharts-series highcharts-series-0"  transform="translate(43,10) scale(1 1)" clip-path="url(#highcharts-5)"><rect x="11.5" y="158.5" width="22" height="157" stroke="#FFFFFF" stroke-width="1" fill="#50B432" rx="0" ry="0"></rect><rect x="56.5" y="289.5" width="22" height="26" stroke="#FFFFFF" stroke-width="1" fill="#ED561B" rx="0" ry="0"></rect><rect x="102.5" y="315.5" width="22" height="0" stroke="#FFFFFF" stroke-width="1" fill="#DDDF00" rx="0" ry="0"></rect><rect x="148.5" y="315.5" width="22" height="0" stroke="#FFFFFF" stroke-width="1" fill="#24CBE5" rx="0" ry="0"></rect><rect x="193.5" y="302.5" width="22" height="13" stroke="#FFFFFF" stroke-width="1" fill="#64E572" rx="0" ry="0"></rect><rect x="239.5" y="79.5" width="22" height="236" stroke="#FFFFFF" stroke-width="1" fill="#FF9655" rx="0" ry="0"></rect><rect x="284.5" y="210.5" width="22" height="105" stroke="#FFFFFF" stroke-width="1" fill="#FFF263" rx="0" ry="0"></rect><rect x="330.5" y="131.5" width="22" height="184" stroke="#FFFFFF" stroke-width="1" fill="#6AF9C4" rx="0" ry="0"></rect><rect x="376.5" y="53.5" width="22" height="262" stroke="#FFFFFF" stroke-width="1" fill="#2F7ED8" rx="0" ry="0"></rect><rect x="421.5" y="184.5" width="22" height="131" stroke="#FFFFFF" stroke-width="1" fill="#0D233A" rx="0" ry="0"></rect><rect x="467.5" y="105.5" width="22" height="210" stroke="#FFFFFF" stroke-width="1" fill="#8BBC21" rx="0" ry="0"></rect><rect x="512.5" y="26.5" width="22" height="289" stroke="#FFFFFF" stroke-width="1" fill="#910000" rx="0" ry="0"></rect></g><g class="highcharts-markers highcharts-series-0"  transform="translate(43,10) scale(1 1)" clip-path="none"></g><g class="highcharts-series highcharts-series-1"  transform="translate(43,10) scale(1 1)" clip-path="url(#highcharts-5)"></g><g class="highcharts-markers highcharts-series-1"  transform="translate(43,10) scale(1 1)" clip-path="none"></g></g><g class="highcharts-data-labels highcharts-series-0"  visibility="visible" transform="translate(43,10) scale(1 1)" opacity="1"><g  style="cursor:pointer;" transform="translate(12,138)"><text x="5"  style="font-size:10px;font-weight:bold;font-family:'arial', sans-serif;color:#000000;text-shadow:0 0 6px #ffffff, 0 0 3px #ffffff;fill:#000000;text-rendering:geometricprecision;" y="15"><tspan>60</tspan></text></g><g  style="cursor:pointer;" transform="translate(57,269)"><text x="5"  style="font-size:10px;font-weight:bold;font-family:'arial', sans-serif;color:#000000;text-shadow:0 0 6px #ffffff, 0 0 3px #ffffff;fill:#000000;text-rendering:geometricprecision;" y="15"><tspan>10</tspan></text></g><g  style="cursor:pointer;" transform="translate(106,295)"><text x="5"  style="font-size:10px;font-weight:bold;font-family:'arial', sans-serif;color:#000000;text-shadow:0 0 6px #ffffff, 0 0 3px #ffffff;fill:#000000;text-rendering:geometricprecision;" y="15"><tspan>0</tspan></text></g><g  style="cursor:pointer;" transform="translate(152,295)"><text x="5"  style="font-size:10px;font-weight:bold;font-family:'arial', sans-serif;color:#000000;text-shadow:0 0 6px #ffffff, 0 0 3px #ffffff;fill:#000000;text-rendering:geometricprecision;" y="15"><tspan>0</tspan></text></g><g  style="cursor:pointer;" transform="translate(197,282)"><text x="5"  style="font-size:10px;font-weight:bold;font-family:'arial', sans-serif;color:#000000;text-shadow:0 0 6px #ffffff, 0 0 3px #ffffff;fill:#000000;text-rendering:geometricprecision;" y="15"><tspan>5</tspan></text></g><g  style="cursor:pointer;" transform="translate(240,59)"><text x="5"  style="font-size:10px;font-weight:bold;font-family:'arial', sans-serif;color:#000000;text-shadow:0 0 6px #ffffff, 0 0 3px #ffffff;fill:#000000;text-rendering:geometricprecision;" y="15"><tspan>90</tspan></text></g><g  style="cursor:pointer;" transform="translate(285,190)"><text x="5"  style="font-size:10px;font-weight:bold;font-family:'arial', sans-serif;color:#000000;text-shadow:0 0 6px #ffffff, 0 0 3px #ffffff;fill:#000000;text-rendering:geometricprecision;" y="15"><tspan>40</tspan></text></g><g  style="cursor:pointer;" transform="translate(331,111)"><text x="5"  style="font-size:10px;font-weight:bold;font-family:'arial', sans-serif;color:#000000;text-shadow:0 0 6px #ffffff, 0 0 3px #ffffff;fill:#000000;text-rendering:geometricprecision;" y="15"><tspan>70</tspan></text></g><g  style="cursor:pointer;" transform="translate(374,33)"><text x="5"  style="font-size:10px;font-weight:bold;font-family:'arial', sans-serif;color:#000000;text-shadow:0 0 6px #ffffff, 0 0 3px #ffffff;fill:#000000;text-rendering:geometricprecision;" y="15"><tspan>100</tspan></text></g><g  style="cursor:pointer;" transform="translate(422,164)"><text x="5"  style="font-size:10px;font-weight:bold;font-family:'arial', sans-serif;color:#000000;text-shadow:0 0 6px #ffffff, 0 0 3px #ffffff;fill:#000000;text-rendering:geometricprecision;" y="15"><tspan>50</tspan></text></g><g  style="cursor:pointer;" transform="translate(468,85)"><text x="5"  style="font-size:10px;font-weight:bold;font-family:'arial', sans-serif;color:#000000;text-shadow:0 0 6px #ffffff, 0 0 3px #ffffff;fill:#000000;text-rendering:geometricprecision;" y="15"><tspan>80</tspan></text></g><g  style="cursor:pointer;" transform="translate(510,6)"><text x="5"  style="font-size:10px;font-weight:bold;font-family:'arial', sans-serif;color:#000000;text-shadow:0 0 6px #ffffff, 0 0 3px #ffffff;fill:#000000;text-rendering:geometricprecision;" y="15"><tspan>110</tspan></text></g></g><g class="highcharts-data-labels highcharts-series-1"  visibility="visible" transform="translate(43,10) scale(1 1)" opacity="1"></g><g class="highcharts-legend"  transform="translate(225,356)"><g ><g><g class="highcharts-legend-item"  transform="translate(8,3)"><text x="21" style="color:#333;font-size:9pt;font-weight:normal;cursor:pointer;font-family:'lucida grande','lucida sans unicode',arial,helvetica,sans-serif;text-transform:none;fill:#333;" text-anchor="start"  y="15"><tspan>average time usage</tspan></text><rect x="0" y="4" width="16" height="12"  fill="#CCC"></rect></g></g></g></g><g class="highcharts-axis-labels highcharts-xaxis-labels" ><text x="65.79166666666667" style="color:#000000;cursor:default;font-size:10px;font-family:'arial', sans-serif;text-transform:none;font-weight:normal;fill:#000000;" text-anchor="middle" transform="translate(0,0)" y="343" opacity="1">0:00</text><text x="111.37500000000001" style="color:#000000;cursor:default;font-size:10px;font-family:'arial', sans-serif;text-transform:none;font-weight:normal;fill:#000000;" text-anchor="middle" transform="translate(0,0)" y="343" opacity="1">2:00</text><text x="156.95833333333334" style="color:#000000;cursor:default;font-size:10px;font-family:'arial', sans-serif;text-transform:none;font-weight:normal;fill:#000000;" text-anchor="middle" transform="translate(0,0)" y="343" opacity="1">4:00</text><text x="202.54166666666669" style="color:#000000;cursor:default;font-size:10px;font-family:'arial', sans-serif;text-transform:none;font-weight:normal;fill:#000000;" text-anchor="middle" transform="translate(0,0)" y="343" opacity="1">6:00</text><text x="248.12499999999997" style="color:#000000;cursor:default;font-size:10px;font-family:'arial', sans-serif;text-transform:none;font-weight:normal;fill:#000000;" text-anchor="middle" transform="translate(0,0)" y="343" opacity="1">8:00</text><text x="293.7083333333333" style="color:#000000;cursor:default;font-size:10px;font-family:'arial', sans-serif;text-transform:none;font-weight:normal;fill:#000000;" text-anchor="middle" transform="translate(0,0)" y="343" opacity="1">10:00</text><text x="339.2916666666667" style="color:#000000;cursor:default;font-size:10px;font-family:'arial', sans-serif;text-transform:none;font-weight:normal;fill:#000000;" text-anchor="middle" transform="translate(0,0)" y="343" opacity="1">12:00</text><text x="384.875" style="color:#000000;cursor:default;font-size:10px;font-family:'arial', sans-serif;text-transform:none;font-weight:normal;fill:#000000;" text-anchor="middle" transform="translate(0,0)" y="343" opacity="1">14:00</text><text x="430.45833333333337" style="color:#000000;cursor:default;font-size:10px;font-family:'arial', sans-serif;text-transform:none;font-weight:normal;fill:#000000;" text-anchor="middle" transform="translate(0,0)" y="343" opacity="1">16:00</text><text x="476.0416666666667" style="color:#000000;cursor:default;font-size:10px;font-family:'arial', sans-serif;text-transform:none;font-weight:normal;fill:#000000;" text-anchor="middle" transform="translate(0,0)" y="343" opacity="1">18:00</text><text x="521.6250000000001" style="color:#000000;cursor:default;font-size:10px;font-family:'arial', sans-serif;text-transform:none;font-weight:normal;fill:#000000;" text-anchor="middle" transform="translate(0,0)" y="343" opacity="1">20:00</text><text x="567.2083333333334" style="color:#000000;cursor:default;font-size:10px;font-family:'arial', sans-serif;text-transform:none;font-weight:normal;fill:#000000;" text-anchor="middle" transform="translate(0,0)" y="343" opacity="1">22:00</text></g><g class="highcharts-axis-labels highcharts-yaxis-labels" ><text x="28" style="color:#000000;cursor:default;font-size:10px;font-family:'arial', sans-serif;text-transform:none;font-weight:normal;fill:#000000;width:188px;text-overflow:clip;" text-anchor="end" transform="translate(0,0)" y="330" opacity="1">0</text><text x="28" style="color:#000000;cursor:default;font-size:10px;font-family:'arial', sans-serif;text-transform:none;font-weight:normal;fill:#000000;width:188px;text-overflow:clip;" text-anchor="end" transform="translate(0,0)" y="303" opacity="1">10</text><text x="28" style="color:#000000;cursor:default;font-size:10px;font-family:'arial', sans-serif;text-transform:none;font-weight:normal;fill:#000000;width:188px;text-overflow:clip;" text-anchor="end" transform="translate(0,0)" y="277" opacity="1">20</text><text x="28" style="color:#000000;cursor:default;font-size:10px;font-family:'arial', sans-serif;text-transform:none;font-weight:normal;fill:#000000;width:188px;text-overflow:clip;" text-anchor="end" transform="translate(0,0)" y="251" opacity="1">30</text><text x="28" style="color:#000000;cursor:default;font-size:10px;font-family:'arial', sans-serif;text-transform:none;font-weight:normal;fill:#000000;width:188px;text-overflow:clip;" text-anchor="end" transform="translate(0,0)" y="225" opacity="1">40</text><text x="28" style="color:#000000;cursor:default;font-size:10px;font-family:'arial', sans-serif;text-transform:none;font-weight:normal;fill:#000000;width:188px;text-overflow:clip;" text-anchor="end" transform="translate(0,0)" y="198" opacity="1">50</text><text x="28" style="color:#000000;cursor:default;font-size:10px;font-family:'arial', sans-serif;text-transform:none;font-weight:normal;fill:#000000;width:188px;text-overflow:clip;" text-anchor="end" transform="translate(0,0)" y="172" opacity="1">60</text><text x="28" style="color:#000000;cursor:default;font-size:10px;font-family:'arial', sans-serif;text-transform:none;font-weight:normal;fill:#000000;width:188px;text-overflow:clip;" text-anchor="end" transform="translate(0,0)" y="146" opacity="1">70</text><text x="28" style="color:#000000;cursor:default;font-size:10px;font-family:'arial', sans-serif;text-transform:none;font-weight:normal;fill:#000000;width:188px;text-overflow:clip;" text-anchor="end" transform="translate(0,0)" y="120" opacity="1">80</text><text x="28" style="color:#000000;cursor:default;font-size:10px;font-family:'arial', sans-serif;text-transform:none;font-weight:normal;fill:#000000;width:188px;text-overflow:clip;" text-anchor="end" transform="translate(0,0)" y="93" opacity="1">90</text><text x="28" style="color:#000000;cursor:default;font-size:10px;font-family:'arial', sans-serif;text-transform:none;font-weight:normal;fill:#000000;width:188px;text-overflow:clip;" text-anchor="end" transform="translate(0,0)" y="67" opacity="1">100</text><text x="28" style="color:#000000;cursor:default;font-size:10px;font-family:'arial', sans-serif;text-transform:none;font-weight:normal;fill:#000000;width:188px;text-overflow:clip;" text-anchor="end" transform="translate(0,0)" y="41" opacity="1">110</text><text x="28" style="color:#000000;cursor:default;font-size:10px;font-family:'arial', sans-serif;text-transform:none;font-weight:normal;fill:#000000;width:188px;text-overflow:clip;" text-anchor="end" transform="translate(0,0)" y="15" opacity="1">120</text></g><g class="highcharts-tooltip"  style="cursor:default;padding:0;pointer-events:none;white-space:nowrap;" transform="translate(0,-9999)"><path fill="none" d="M 3.5 0.5 L 13.5 0.5 C 16.5 0.5 16.5 0.5 16.5 3.5 L 16.5 13.5 C 16.5 16.5 16.5 16.5 13.5 16.5 L 3.5 16.5 C 0.5 16.5 0.5 16.5 0.5 13.5 L 0.5 3.5 C 0.5 0.5 0.5 0.5 3.5 0.5"  stroke="black" stroke-opacity="0.049999999999999996" stroke-width="5" transform="translate(1, 1)"></path><path fill="none" d="M 3.5 0.5 L 13.5 0.5 C 16.5 0.5 16.5 0.5 16.5 3.5 L 16.5 13.5 C 16.5 16.5 16.5 16.5 13.5 16.5 L 3.5 16.5 C 0.5 16.5 0.5 16.5 0.5 13.5 L 0.5 3.5 C 0.5 0.5 0.5 0.5 3.5 0.5"  stroke="black" stroke-opacity="0.09999999999999999" stroke-width="3" transform="translate(1, 1)"></path><path fill="none" d="M 3.5 0.5 L 13.5 0.5 C 16.5 0.5 16.5 0.5 16.5 3.5 L 16.5 13.5 C 16.5 16.5 16.5 16.5 13.5 16.5 L 3.5 16.5 C 0.5 16.5 0.5 16.5 0.5 13.5 L 0.5 3.5 C 0.5 0.5 0.5 0.5 3.5 0.5"  stroke="black" stroke-opacity="0.15" stroke-width="1" transform="translate(1, 1)"></path><path fill="rgb(255, 255, 255)" fill-opacity=" 0.85" d="M 3.5 0.5 L 13.5 0.5 C 16.5 0.5 16.5 0.5 16.5 3.5 L 16.5 13.5 C 16.5 16.5 16.5 16.5 13.5 16.5 L 3.5 16.5 C 0.5 16.5 0.5 16.5 0.5 13.5 L 0.5 3.5 C 0.5 0.5 0.5 0.5 3.5 0.5"></path><text x="8"  style="font-size:12px;color:#000000;fill:#000000;" y="20"></text></g><text x="590" text-anchor="end"  style="cursor:pointer;color:#909090;font-size:9px;fill:#909090;" y="395">meta-chart.com</text></svg>