<?xml version="1.0" standalone="no"?><!DOCTYPE svg PUBLIC "-//W3C//DTD SVG 1.1//EN" "http://www.w3.org/Graphics/SVG/1.1/DTD/svg11.dtd"><svg xmlns:xlink="http://www.w3.org/1999/xlink" version="1.1" style="font-family:'lucida grande', 'lucida sans unicode', arial, helvetica, sans-serif;font-size:12px;" xmlns="http://www.w3.org/2000/svg" width="600" height="400"><desc>Created with Highcharts 4.2.0</desc><defs><radialGradient cx="0.5" cy="0.3" r="0.7" id="highcharts-13"><stop offset="0" stop-color="#50B432" stop-opacity="1"></stop><stop offset="1" stop-color="rgb(4,104,0)" stop-opacity="1"></stop></radialGradient><radialGradient cx="0.5" cy="0.3" r="0.7" id="highcharts-14"><stop offset="0" stop-color="#ed781b" stop-opacity="1"></stop><stop offset="1" stop-color="rgb(161,44,0)" stop-opacity="1"></stop></radialGradient><radialGradient cx="0.5" cy="0.3" r="0.7" id="highcharts-15"><stop offset="0" stop-color="#df0000" stop-opacity="1"></stop><stop offset="1" stop-color="rgb(147,0,0)" stop-opacity="1"></stop></radialGradient><clipPath id="highcharts-16"><rect x="0" y="0" width="580" height="334"></rect></clipPath><radialGradient cx="290" cy="116.1" r="207.89999999999998" id="highcharts-17" gradientUnits="userSpaceOnUse"><stop offset="0" stop-color="#50B432" stop-opacity="1"></stop><stop offset="1" stop-color="rgb(4,104,0)" stop-opacity="1"></stop></radialGradient><radialGradient cx="290" cy="116.1" r="207.89999999999998" id="highcharts-18" gradientUnits="userSpaceOnUse"><stop offset="0" stop-color="#ed781b" stop-opacity="1"></stop><stop offset="1" stop-color="rgb(161,44,0)" stop-opacity="1"></stop></radialGradient><radialGradient cx="290" cy="116.1" r="207.89999999999998" id="highcharts-19" gradientUnits="userSpaceOnUse"><stop offset="0" stop-color="#df0000" stop-opacity="1"></stop><stop offset="1" stop-color="rgb(147,0,0)" stop-opacity="1"></stop></radialGradient></defs><g class="highcharts-series-group" ><g class="highcharts-series highcharts-series-0"  transform="translate(10,10) scale(1 1)"><path fill="url(#highcharts-17)" d="M 289.96975452925125 27.500003080096008 A 148.5 148.5 0 1 1 251.6508279095384 319.462855819812 L 290 176 A 0 0 0 1 0 290 176 Z" stroke="#FFFFFF" stroke-width="1" stroke-linejoin="round" transform="translate(0,0)"></path><path fill="url(#highcharts-18)" d="M 251.50738425221354 319.42443492269115 A 148.5 148.5 0 0 1 184.89065346218396 71.0987356110838 L 290 176 A 0 0 0 0 0 290 176 Z" stroke="#FFFFFF" stroke-width="1" stroke-linejoin="round" transform="translate(0,0)"></path><path fill="url(#highcharts-19)" d="M 184.99560726375822 70.99367873269203 A 148.5 148.5 0 0 1 289.79373647919635 27.500143248015263 L 290 176 A 0 0 0 0 0 290 176 Z" stroke="#FFFFFF" stroke-width="1" stroke-linejoin="round" transform="translate(-4,-9)"></path></g><g class="highcharts-markers highcharts-series-0"  transform="translate(10,10) scale(1 1)"></g></g><g class="highcharts-data-labels highcharts-series-0"  visibility="visible" transform="translate(10,10) scale(1 1)" opacity="1"><path fill="none" d="M 471.97290775522515 198.7989253112792 C 466.97290775522515 198.7989253112792 459.04134886423464 197.7547157735188 448.13545538912274 196.31892765909822 L 437.22956191401084 194.88313954467765" stroke="url(#highcharts-13)" stroke-width="1"></path><path fill="none" d="M 112.58224000740134 221.69919955080007 C 117.58224000740134 221.69919955080007 125.30964661771387 219.6286471899799 135.93483070689362 216.78163769385216 L 146.56001479607338 213.93462819772444" stroke="url(#highcharts-14)" stroke-width="1"></path><path fill="none" d="M 216.6910073228314 10.587503446735354 C 221.6910073228314 10.587503446735354 224.75247478175208 17.978539706825643 228.96199253776808 28.141214564449797 L 233.17151029378408 38.30388942207395" stroke="url(#highcharts-15)" stroke-width="1"></path><g  style="cursor:pointer;" transform="translate(477,189)"><text x="5"  style="font-size:10px;font-weight:bold;font-family:'arial', sans-serif;color:#000000;text-shadow:0 0 6px #ffffff, 0 0 3px #ffffff;fill:#000000;text-rendering:geometricprecision;" y="15"><tspan>Health : 13 hr</tspan></text></g><g  style="cursor:pointer;" transform="translate(31,212)"><text x="5"  style="font-size:10px;font-weight:bold;font-family:'arial', sans-serif;color:#000000;text-shadow:0 0 6px #ffffff, 0 0 3px #ffffff;fill:#000000;text-rendering:geometricprecision;" y="15"><tspan>Medium : 8 hr</tspan></text></g><g  style="cursor:pointer;" transform="translate(149,1)"><text x="5"  style="font-size:10px;font-weight:bold;font-family:'arial', sans-serif;color:#000000;text-shadow:0 0 6px #ffffff, 0 0 3px #ffffff;fill:#000000;text-rendering:geometricprecision;" y="15"><tspan>Alert : 3 hr</tspan></text></g></g><g class="highcharts-legend"  transform="translate(184,356)"><g ><g><g class="highcharts-legend-item"  transform="translate(8,3)"><text x="21" style="color:#333;font-size:9pt;font-weight:normal;cursor:pointer;font-family:'lucida grande','lucida sans unicode',arial,helvetica,sans-serif;text-transform:none;fill:#333;" text-anchor="start"  y="15">Health</text><rect x="0" y="4" width="16" height="12"  fill="url(#highcharts-13)"></rect></g><g class="highcharts-legend-item"  transform="translate(86.53125,3)"><text x="21" y="15" style="color:#333;font-size:9pt;font-weight:normal;cursor:pointer;font-family:'lucida grande','lucida sans unicode',arial,helvetica,sans-serif;text-transform:none;fill:#333;" text-anchor="start" >Medium</text><rect x="0" y="4" width="16" height="12"  fill="url(#highcharts-14)"></rect></g><g class="highcharts-legend-item"  transform="translate(174.21875,3)"><text x="21" y="15" style="color:#333;font-size:9pt;font-weight:normal;cursor:pointer;font-family:'lucida grande','lucida sans unicode',arial,helvetica,sans-serif;text-transform:none;fill:#333;" text-anchor="start" >Alert</text><rect x="0" y="4" width="16" height="12"  fill="url(#highcharts-15)"></rect></g></g></g></g><g class="highcharts-tooltip"  style="cursor:default;padding:0;pointer-events:none;white-space:nowrap;" transform="translate(0,-9999)"><path fill="none" d="M 3.5 0.5 L 13.5 0.5 C 16.5 0.5 16.5 0.5 16.5 3.5 L 16.5 13.5 C 16.5 16.5 16.5 16.5 13.5 16.5 L 3.5 16.5 C 0.5 16.5 0.5 16.5 0.5 13.5 L 0.5 3.5 C 0.5 0.5 0.5 0.5 3.5 0.5"  stroke="black" stroke-opacity="0.049999999999999996" stroke-width="5" transform="translate(1, 1)"></path><path fill="none" d="M 3.5 0.5 L 13.5 0.5 C 16.5 0.5 16.5 0.5 16.5 3.5 L 16.5 13.5 C 16.5 16.5 16.5 16.5 13.5 16.5 L 3.5 16.5 C 0.5 16.5 0.5 16.5 0.5 13.5 L 0.5 3.5 C 0.5 0.5 0.5 0.5 3.5 0.5"  stroke="black" stroke-opacity="0.09999999999999999" stroke-width="3" transform="translate(1, 1)"></path><path fill="none" d="M 3.5 0.5 L 13.5 0.5 C 16.5 0.5 16.5 0.5 16.5 3.5 L 16.5 13.5 C 16.5 16.5 16.5 16.5 13.5 16.5 L 3.5 16.5 C 0.5 16.5 0.5 16.5 0.5 13.5 L 0.5 3.5 C 0.5 0.5 0.5 0.5 3.5 0.5"  stroke="black" stroke-opacity="0.15" stroke-width="1" transform="translate(1, 1)"></path><path fill="rgb(249, 249, 249)" fill-opacity=" .85" d="M 3.5 0.5 L 13.5 0.5 C 16.5 0.5 16.5 0.5 16.5 3.5 L 16.5 13.5 C 16.5 16.5 16.5 16.5 13.5 16.5 L 3.5 16.5 C 0.5 16.5 0.5 16.5 0.5 13.5 L 0.5 3.5 C 0.5 0.5 0.5 0.5 3.5 0.5"></path><text x="8"  style="font-size:12px;color:#000000;fill:#000000;" y="20"></text></g><text x="590" text-anchor="end"  style="cursor:pointer;color:#909090;font-size:9px;fill:#909090;" y="395">meta-chart.com</text></svg>